#!OML:ASF F:\VICON\USERDATA\INSTALL\rory3\rory3.ASF
:FULLY-SPECIFIED
:DEGREES
239
root 0.0557137 17.9959 -1.03213 1.59524 -8.98269 1.45618
lowerback -0.955248 -0.516054 -2.82564
upperback 0.0939917 -0.666967 1.71754
thorax 0.684922 -0.347663 3.33944
lowerneck -18.758 -0.403797 -8.81263
upperneck 30.8668 1.76088 1.93984
head 13.4918 -0.0312991 2.57396
rclavicle 5.05658e-015 -9.54166e-015
rhumerus -7.01217 49.0205 -72.1925
rradius 117.612
rwrist 40.0336
rhand 5.50516 7.89374
rfingers 7.12502
rthumb 30.8517 -19.5359
lclavicle 5.05658e-015 -9.54166e-015
lhumerus -35.0872 -27.371 101.513
lradius 86.3068
lwrist 6.86198
lhand -19.3641 21.8738
lfingers 7.12502
lthumb 6.9537 51.7396
rfemur -7.72405 7.74786 14.492
rtibia 24.7825
rfoot -15.9168 -3.27472
rtoes 7.28771
lfemur 0.15274 -2.05185 -22.0342
ltibia 12.5536
lfoot -10.1777 4.66975
ltoes -11.0594
240
root 0.054723 17.9949 -1.03646 1.6244 -8.9275 1.47699
lowerback -0.956405 -0.516183 -2.88458
upperback 0.0904202 -0.666398 1.71426
thorax 0.682514 -0.347493 3.36935
lowerneck -18.7627 -0.408804 -8.73417
upperneck 30.8288 1.73137 1.92473
head 13.4789 -0.0354026 2.54897
rclavicle -2.1096e-014 -1.82882e-014
rhumerus -6.93213 49.0662 -72.077
rradius 117.593
rwrist 40.026
rhand 5.55717 7.87249
rfingers 7.12502
rthumb 30.9013 -19.5478
lclavicle -2.1096e-014 -1.82882e-014
lhumerus -35.0065 -27.3202 101.529
lradius 86.2484
lwrist 6.72517
lhand -19.3395 21.8582
lfingers 7.12502
lthumb 6.97747 51.7232
rfemur -7.75205 7.62338 14.4863
rtibia 24.76
rfoot -15.8295 -3.34236
rtoes 5.96859
lfemur 0.0871202 -2.1201 -22.0485
ltibia 12.5729
lfoot -10.1635 4.6594
ltoes -11.0226
241
root 0.053006 17.9929 -1.03955 1.62345 -8.85887 1.46824
lowerback -0.939834 -0.526764 -2.95918
upperback 0.096447 -0.680351 1.75577
thorax 0.681939 -0.354946 3.45424
lowerneck -18.694 -0.433024 -8.77748
upperneck 30.7762 1.69227 1.95319
head 13.4437 -0.0513152 2.55925
rclavicle -6.58474e-016 -8.74653e-015
rhumerus -6.83168 49.1438 -71.9521
rradius 117.553
rwrist 40.0345
rhand 5.57122 7.95942
rfingers 7.12502
rthumb 30.9147 -19.4583
lclavicle -6.58474e-016 -8.74653e-015
lhumerus -34.9749 -27.2308 101.577
lradius 86.2154
lwrist 6.60048
lhand -19.3447 21.742
lfingers 7.12502
lthumb 6.97246 51.6072
rfemur -7.73226 7.43645 14.5234
rtibia 24.723
rfoot -15.7315 -3.38177
rtoes 4.08198
lfemur 0.021918 -2.14145 -22.0256
ltibia 12.6729
lfoot -10.1988 4.61589
ltoes -11.1007
242
root 0.0504924 17.9923 -1.04141 1.60901 -8.8445 1.43994
lowerback -0.963455 -0.507571 -2.97115
upperback 0.128346 -0.654007 1.76133
thorax 0.72598 -0.343121 3.46683
lowerneck -18.5871 -0.457667 -8.82677
upperneck 30.6804 1.62437 2.05631
head 13.382 -0.06827 2.59406
rclavicle 2.64756e-014 -3.18055e-015
rhumerus -6.73161 49.176 -71.871
rradius 117.491
rwrist 40.0538
rhand 5.3391 8.0448
rfingers 7.12502
rthumb 30.6934 -19.4147
lclavicle 2.64756e-014 -3.18055e-015
lhumerus -34.906 -27.2128 101.56
lradius 86.1999
lwrist 6.57034
lhand -19.3623 21.6647
lfingers 7.12502
lthumb 6.95547 51.5305
rfemur -7.69566 7.42198 14.5714
rtibia 24.6837
rfoot -15.6979 -3.41464
rtoes 3.82559
lfemur -0.0416558 -2.11232 -21.9791
ltibia 12.82
lfoot -10.28 4.57263
ltoes -11.0693
243
root 0.0480865 17.992 -1.04604 1.62567 -8.80005 1.38095
lowerback -0.941038 -0.488923 -2.93113
upperback 0.081944 -0.630092 1.74578
thorax 0.663174 -0.329089 3.42898
lowerneck -18.3609 -0.456931 -8.79742
upperneck 30.6017 1.55498 2.15499
head 13.3022 -0.0777843 2.61247
rclavicle -1.10574e-015 7.95139e-016
rhumerus -6.92804 49.2106 -72.0358
rradius 117.463
rwrist 40.1251
rhand 5.11259 8.11762
rfingers 7.12502
rthumb 30.4774 -19.3821
lclavicle -1.10574e-015 7.95139e-016
lhumerus -34.9406 -27.2328 101.555
lradius 86.165
lwrist 6.60094
lhand -19.4251 21.652
lfingers 7.12502
lthumb 6.89477 51.5197
rfemur -7.68043 7.45901 14.652
rtibia 24.6526
rfoot -15.7309 -3.46607
rtoes 4.10171
lfemur -0.129277 -2.13285 -21.8958
ltibia 12.9413
lfoot -10.3367 4.54955
ltoes -11.0507
244
root 0.0457085 17.991 -1.05102 1.63411 -8.77308 1.3482
lowerback -0.895453 -0.477306 -2.92658
upperback 0.0292352 -0.615768 1.73794
thorax 0.582203 -0.319607 3.41916
lowerneck -18.1512 -0.465268 -8.79072
upperneck 30.5275 1.48926 2.23273
head 13.2286 -0.091806 2.62732
rclavicle 1.01007e-014 -4.77083e-015
rhumerus -7.11313 49.2614 -72.2095
rradius 117.443
rwrist 40.1949
rhand 5.08031 8.16196
rfingers 7.12502
rthumb 30.4466 -19.3435
lclavicle 1.01007e-014 -4.77083e-015
lhumerus -34.9749 -27.1746 101.58
lradius 86.1089
lwrist 6.52225
lhand -19.4099 21.6093
lfingers 7.12502
lthumb 6.90952 51.4765
rfemur -7.66433 7.5073 14.7018
rtibia 24.6316
rfoot -15.7923 -3.49319
rtoes 4.77169
lfemur -0.183723 -2.15941 -21.8461
ltibia 13.0195
lfoot -10.3489 4.5511
ltoes -11.0213
245
root 0.043797 17.9908 -1.05127 1.63843 -8.79474 1.37194
lowerback -0.987526 -0.456662 -2.95941
upperback 0.0755326 -0.585416 1.7231
thorax 0.67908 -0.306962 3.42195
lowerneck -18.1174 -0.491264 -8.82795
upperneck 30.4507 1.43406 2.30713
head 13.1912 -0.107078 2.65197
rclavicle -5.23052e-015 1.35174e-014
rhumerus -7.0881 49.2652 -72.1902
rradius 117.448
rwrist 40.2492
rhand 5.15772 8.20026
rfingers 7.12502
rthumb 30.5204 -19.2915
lclavicle -5.23052e-015 1.35174e-014
lhumerus -34.828 -27.1354 101.576
lradius 86.0429
lwrist 6.27637
lhand -19.4005 21.5201
lfingers 7.12502
lthumb 6.91852 51.3871
rfemur -7.67382 7.50059 14.6825
rtibia 24.6061
rfoot -15.7575 -3.47815
rtoes 4.82315
lfemur -0.230349 -2.14396 -21.8699
ltibia 13.1011
lfoot -10.3715 4.5925
ltoes -11.1135
246
root 0.0414691 17.9903 -1.05359 1.64308 -8.75082 1.37557
lowerback -1.02197 -0.453234 -2.97714
upperback 0.10684 -0.57949 1.69578
thorax 0.729942 -0.305403 3.40345
lowerneck -18.1402 -0.516676 -8.8044
upperneck 30.4322 1.36643 2.38241
head 13.1912 -0.122852 2.66665
rclavicle 2.19906e-015 -1.98785e-015
rhumerus -7.06061 49.2796 -72.1731
rradius 117.474
rwrist 40.2873
rhand 5.23938 8.15998
rfingers 7.12502
rthumb 30.5983 -19.3173
lclavicle 2.19906e-015 -1.98785e-015
lhumerus -34.7273 -27.1542 101.538
lradius 86.0525
lwrist 5.98221
lhand -19.3323 21.4885
lfingers 7.12502
lthumb 6.98443 51.3532
rfemur -7.67986 7.44961 14.6882
rtibia 24.578
rfoot -15.7173 -3.48856
rtoes 4.6313
lfemur -0.287331 -2.14227 -21.8582
ltibia 13.1821
lfoot -10.4006 4.56209
ltoes -11.2136
247
root 0.0366947 17.9902 -1.05966 1.62536 -8.69318 1.34992
lowerback -0.934755 -0.452065 -3.01297
upperback 0.0943913 -0.579705 1.69405
thorax 0.668614 -0.304321 3.42259
lowerneck -18.1306 -0.516457 -8.81138
upperneck 30.4575 1.33386 2.48686
head 13.1996 -0.124293 2.70436
rclavicle -1.13556e-014 2.26615e-014
rhumerus -7.10647 49.3095 -72.2271
rradius 117.558
rwrist 40.3235
rhand 5.41287 8.2767
rfingers 7.12502
rthumb 30.7637 -19.1695
lclavicle -1.13556e-014 2.26615e-014
lhumerus -34.7436 -27.1223 101.535
lradius 86.0756
lwrist 5.72013
lhand -19.2923 21.4069
lfingers 7.12502
lthumb 7.02302 51.2704
rfemur -7.64918 7.4097 14.7443
rtibia 24.5509
rfoot -15.7014 -3.51758
rtoes 4.59385
lfemur -0.303982 -2.01321 -21.7924
ltibia 13.2296
lfoot -10.4217 4.37785
ltoes -11.4241
248
root 0.0335949 17.9918 -1.06442 1.63874 -8.65654 1.29175
lowerback -0.916901 -0.453212 -2.98113
upperback 0.0997812 -0.58206 1.69753
thorax 0.664033 -0.30539 3.40828
lowerneck -18.1154 -0.529379 -8.84123
upperneck 30.4355 1.28808 2.59204
head 13.1881 -0.13246 2.74291
rclavicle 7.59109e-015 7.15625e-015
rhumerus -7.06157 49.3167 -72.2331
rradius 117.616
rwrist 40.3397
rhand 5.52189 8.53026
rfingers 7.12502
rthumb 30.8676 -18.8964
lclavicle 7.59109e-015 7.15625e-015
lhumerus -34.7099 -27.1037 101.475
lradius 86.0932
lwrist 5.64123
lhand -19.1963 21.3541
lfingers 7.12502
lthumb 7.11568 51.2144
rfemur -7.64837 7.41345 14.8236
rtibia 24.5122
rfoot -15.6775 -3.56245
rtoes 4.61353
lfemur -0.34824 -1.93352 -21.7036
ltibia 13.2794
lfoot -10.4635 4.25986
ltoes -11.7945
